<svg width="84" height="82" viewBox="0 0 84 82" fill="none" xmlns="http://www.w3.org/2000/svg">
<path d="M17.5 43.5953C17.5 38.9563 17.5 36.6368 18.4606 34.598C19.4212 32.5591 21.2253 31.0496 24.8334 28.0306L28.3334 25.102C34.855 19.6451 38.1158 16.9167 42 16.9167C45.8842 16.9167 49.145 19.6451 55.6666 25.102L59.1666 28.0306C62.7747 31.0496 64.5788 32.5591 65.5394 34.598C66.5 36.6368 66.5 38.9563 66.5 43.5953V58.0833C66.5 64.5259 66.5 67.7471 64.4497 69.7486C62.3995 71.75 59.0997 71.75 52.5 71.75H31.5C24.9003 71.75 21.6005 71.75 19.5503 69.7486C17.5 67.7471 17.5 64.5259 17.5 58.0833V43.5953Z" stroke="#33363F" stroke-width="2"/>
<path d="M50.75 71.75V52.25C50.75 51.6977 50.3023 51.25 49.75 51.25H34.25C33.6977 51.25 33.25 51.6977 33.25 52.25V71.75" stroke="#33363F" stroke-width="2" stroke-linecap="round" stroke-linejoin="round"/>
</svg>
